<svg id="Warstwa_1" enable-background="new 0 0 283.46 283.46" height="283.46" viewBox="0 0 283.46 283.46" width="283.46" xmlns="http://www.w3.org/2000/svg" xmlns:xlink="http://www.w3.org/1999/xlink"><clipPath id="SVGID_2_"><path id="SVGID_1_" d="m141.747 6.213c74.838 0 135.507 60.675 135.507 135.525 0 74.838-60.669 135.519-135.507 135.519-74.85 0-135.525-60.681-135.525-135.519 0-74.85 60.675-135.525 135.525-135.525z"/></clipPath><g><path d="m141.724 2.834c76.717 0 138.916 62.187 138.916 138.904 0 76.705-62.198 138.892-138.916 138.892-76.706 0-138.898-62.187-138.898-138.892 0-76.717 62.192-138.904 138.898-138.904z" fill="#d6d4d1"/><g><g><g clip-path="url(#SVGID_2_)"><g><path d="m-61.508 6.249h406.539v271.043h-406.539z" fill="#162b74"/><path d="m345.019 6.272h-48.856l-154.416 102.943-154.41-102.943h-48.845v32.558l154.415 102.955-154.415 102.943v32.564h48.845l154.41-102.944 154.416 102.944h48.856v-32.564l-154.414-102.943 154.414-102.955z" fill="#fff"/><g fill="#ce102a"><path d="m-61.508 6.272v16.27l203.255 135.537v-16.294z"/><path d="m345.019 261.022-203.272-135.542v16.305l203.272 135.507z"/><path d="m-61.508 277.292h24.417l178.838-119.213v-16.294z"/><path d="m320.603 6.272-178.856 119.231v16.305l203.25-135.536z"/></g><g><path d="m345.019 118.057h-186.324v-111.785h-33.889v111.785h-186.314v47.444h186.314v111.791h33.889v-111.791h186.324z" fill="#ce142b"/><g fill="#fff"><path d="m111.255 6.272v98.234h-172.763v13.551h186.314v-111.785z"/><path d="m-61.508 179.041h172.763v98.251h13.551v-111.791h-186.314z"/><path d="m345.019 165.501h-186.324v111.791h13.561v-98.251h172.763z"/><path d="m345.019 104.506h-172.763v-98.234h-13.561v111.785h186.324z"/></g></g></g></g></g></g></g></svg>