<?xml version="1.0" encoding="UTF-8"?>
<svg id="Capa_2" data-name="Capa 2" xmlns="http://www.w3.org/2000/svg" viewBox="0 0 223.3 89.56">
  <defs>
    <style>
      .cls-1 {
        fill: #fff;
      }
    </style>
  </defs>
  <g id="Capa_1-2" data-name="Capa 1">
    <g>
      <g>
        <path class="cls-1" d="M69.28,89.51c-1.49,0-2.86-.25-4.13-.74-1.26-.49-2.37-1.19-3.31-2.08-.94-.9-1.67-1.94-2.19-3.15-.52-1.2-.78-2.51-.78-3.93s.27-2.75.82-3.95c.55-1.2,1.31-2.25,2.29-3.13.98-.89,2.11-1.58,3.4-2.07,1.29-.49,2.67-.74,4.14-.74,1.78,0,3.37.31,4.77.91,1.41.61,2.55,1.43,3.43,2.47l-3.63,3.63c-.66-.77-1.35-1.34-2.07-1.72s-1.58-.56-2.58-.56c-.95,0-1.81.21-2.58.63-.77.42-1.38,1.02-1.84,1.79-.46.77-.69,1.68-.69,2.72s.21,1.95.63,2.73c.42.78,1.01,1.39,1.76,1.82s1.63.65,2.64.65,1.78-.19,2.45-.56c.66-.38,1.17-.91,1.52-1.61s.52-1.52.52-2.47l3.68,2.34-8.9-.27v-4.3h10.62v.81c0,2.29-.42,4.25-1.25,5.86-.83,1.61-2,2.84-3.5,3.68-1.5.84-3.24,1.26-5.23,1.26Z"/>
        <path class="cls-1" d="M82.35,89.18v-19.15h5.38v19.15h-5.38ZM86.71,81.55v-3.71h3.25c.73,0,1.29-.18,1.68-.54.38-.36.58-.83.58-1.43s-.19-1.07-.58-1.43c-.39-.36-.95-.54-1.68-.54h-3.25v-3.87h4.11c1.33,0,2.49.24,3.5.73,1,.48,1.79,1.16,2.37,2.02.57.86.86,1.87.86,3.01s-.29,2.15-.87,3.01c-.58.86-1.39,1.53-2.43,2.02-1.04.48-2.27.73-3.68.73h-3.85ZM92.68,89.18l-5.22-8.18,4.84-1.05,6.48,9.22h-6.1Z"/>
        <path class="cls-1" d="M110.72,89.56c-1.51,0-2.89-.25-4.16-.75-1.26-.5-2.37-1.2-3.31-2.1-.94-.9-1.67-1.95-2.19-3.17-.52-1.22-.78-2.54-.78-3.95s.26-2.75.77-3.95c.51-1.2,1.23-2.25,2.17-3.15.93-.9,2.03-1.59,3.29-2.08,1.26-.49,2.65-.74,4.16-.74s2.89.25,4.15.74c1.26.49,2.36,1.19,3.29,2.08.93.9,1.65,1.95,2.16,3.16.51,1.21.77,2.53.77,3.97s-.25,2.73-.77,3.94c-.51,1.21-1.23,2.27-2.16,3.17-.93.91-2.03,1.6-3.28,2.1-1.25.49-2.63.74-4.11.74ZM110.67,84.83c1,0,1.87-.22,2.61-.65.73-.43,1.3-1.04,1.69-1.83.39-.79.59-1.71.59-2.77,0-.79-.11-1.5-.34-2.14-.22-.64-.55-1.18-.98-1.64-.43-.46-.95-.81-1.55-1.05-.6-.24-1.28-.36-2.03-.36-1,0-1.87.21-2.61.63-.74.42-1.3,1.02-1.69,1.8-.39.78-.59,1.7-.59,2.76,0,.81.11,1.53.34,2.18.22.65.55,1.2.98,1.65.43.46.95.81,1.55,1.05.6.24,1.28.36,2.03.36Z"/>
        <path class="cls-1" d="M132.37,89.51c-1.68,0-3.16-.35-4.41-1.04s-2.23-1.65-2.93-2.86c-.7-1.22-1.05-2.62-1.05-4.2v-11.38h5.38v11.86c0,.61.13,1.13.4,1.56.27.43.63.76,1.09.98.46.22.96.34,1.52.34s1.08-.11,1.52-.34c.44-.22.78-.55,1.04-.97s.38-.94.38-1.55v-11.89h5.41v11.4c0,1.58-.35,2.97-1.04,4.18-.69,1.21-1.66,2.16-2.9,2.85-1.25.69-2.71,1.04-4.4,1.04Z"/>
        <path class="cls-1" d="M144.61,89.18v-19.15h5.38v19.15h-5.38ZM148.96,82.46v-3.87h3.47c.41,0,.79-.08,1.14-.26.35-.17.63-.43.85-.78s.32-.78.32-1.3-.11-.95-.32-1.3-.5-.61-.85-.78-.73-.26-1.14-.26h-3.47v-3.87h4.52c1.24,0,2.35.25,3.35.74,1,.49,1.78,1.2,2.37,2.12.58.92.87,2.04.87,3.35s-.29,2.4-.87,3.33c-.58.93-1.37,1.65-2.37,2.14-.99.49-2.11.74-3.35.74h-4.52Z"/>
      </g>
      <g>
        <path class="cls-1" d="M14.35,42.71L0,17.98h12.18l10.86,20.18h-9.11l10.86-20.18h11.92l-14.46,24.73h-7.89ZM13.13,55.69v-16.84h10.59v16.84h-10.59Z"/>
        <path class="cls-1" d="M39.56,55.69V17.98h10.59v37.71h-10.59ZM48.14,26.77v-8.79h19.91v8.79h-19.91ZM48.14,40.75v-8.58h18.27v8.58h-18.27ZM48.14,55.69v-8.79h20.23v8.79h-20.23Z"/>
        <path class="cls-1" d="M153.87,55.69l14.35-37.71h10.8l14.19,37.71h-11.02l-10.54-32.04h3.81l-10.8,32.04h-10.8ZM163.19,49.33v-8.26h21.08v8.26h-21.08Z"/>
        <path class="cls-1" d="M197.04,55.69V17.98h10.59v37.71h-10.59ZM205.67,55.69v-9h17.63v9h-17.63Z"/>
        <polygon class="cls-1" points="111.08 11.78 103.11 37.12 99.3 24.96 93.59 42.5 97.89 55.69 109.32 55.69 123.84 11.78 111.08 11.78"/>
        <polygon class="cls-1" points="104.62 11.78 122.81 0 129.12 11.78 104.62 11.78"/>
        <polygon class="cls-1" points="71.73 55.69 83.93 18.21 96.77 18.21 84.57 55.69 71.73 55.69"/>
        <polygon class="cls-1" points="161.45 17.98 146.43 18.09 135.84 18.09 127.12 18.09 124.56 27.1 136.56 27.1 125.16 55.69 135.75 55.69 147.16 27.1 157.77 27.1 161.45 17.98"/>
      </g>
    </g>
  </g>
</svg>